# xmcd
#
# Track frame offsets: 
#        150
#        10775
#        20658
#        29234
#        38735
#        48308
#        58422
#        69467
#        79689
#        97444
#        107350
#        118346
#        127400
#        138341
#        151739
#        162825
#        174097
#        184720
#        199125
#        208651
#        219229
#        229294
#        237570
#        248564
#        261540
#        274354
#        282946
#        296671
#
# Disc length: 4198 seconds
#
# Revision: 0
# Processed by: cddbd v1.5.2PL0 Copyright (c) Steve Scherf et al.
# Submitted via: ExactAudioCopy v0.95b3
#
DISCID=af10641c
DTITLE=The Ventures  - Surfing (1963) - 192K
DYEAR=1900
DGENRE=
TTITLE0=Ventures - Pipeline
TTITLE1=Ventures - The Ninth Wave
TTITLE2=Ventures - Hawaii Five-O
TTITLE3=Ventures - Perfidia
TTITLE4=Ventures - Walk, Don´t Run
TTITLE5=Ventures - Lonely Bull
TTITLE6=Ventures - Let´s Go
TTITLE7=Ventures - Sukiyaki
TTITLE8=Ventures - Cruisin´ Machine
TTITLE9=Ventures - Diamonds
TTITLE10=Ventures - Windy and Warm
TTITLE11=Ventures - Ten Over
TTITLE12=Ventures - Surf Rider
TTITLE13=Ventures - Changing Tides
TTITLE14=Ventures - Bulldog
TTITLE15=Ventures - Showdown At Newport
TTITLE16=Ventures - Surfin´ and Spyin´
TTITLE17=Ventures - Moon Over Manakoora
TTITLE18=Ventures - Torquay
TTITLE19=Ventures - Party In Laguna
TTITLE20=Ventures - Barefoot Venture
TTITLE21=Ventures - The Heavies
TTITLE22=Ventures - Crunsher
TTITLE23=Ventures - The Lonely Sea
TTITLE24=Ventures - Flashback (Live)
TTITLE25=Ventures - Yozora No Hoshi (Live)
TTITLE26=Ventures - Secret Agent Man (Live)
TTITLE27=Ventures - Don´t Blame On Me
EXTD=
EXTT0=
EXTT1=
EXTT2=
EXTT3=
EXTT4=
EXTT5=
EXTT6=
EXTT7=
EXTT8=
EXTT9=
EXTT10=
EXTT11=
EXTT12=
EXTT13=
EXTT14=
EXTT15=
EXTT16=
EXTT17=
EXTT18=
EXTT19=
EXTT20=
EXTT21=
EXTT22=
EXTT23=
EXTT24=
EXTT25=
EXTT26=
EXTT27=
PLAYORDER=
